<svg width="37" height="37" viewBox="0 0 37 37" fill="none" xmlns="http://www.w3.org/2000/svg">
<path d="M8.81696 35.938C5.05256 35.938 2 32.8865 2 29.121V8.81696C2 5.05144 5.05144 2 8.81696 2H29.1221C32.8865 2 35.9391 5.05144 35.9391 8.81696V29.1221C35.9391 32.8865 32.8877 35.9391 29.1221 35.9391H8.81696V35.938Z" stroke="white" stroke-miterlimit="10" stroke-linecap="round" stroke-linejoin="round"/>
<path d="M9.31694 33.1814C6.798 33.1814 4.75661 31.14 4.75661 28.621V9.13871C4.75661 6.61976 6.798 4.57837 9.31694 4.57837H28.6221C31.1411 4.57837 33.1825 6.61976 33.1825 9.13871V28.621C33.1825 31.14 31.1411 33.1814 28.6221 33.1814H9.31694Z" stroke="white" stroke-miterlimit="10" stroke-linecap="round" stroke-linejoin="round"/>
<path d="M18.969 27.4597C23.7072 27.4597 27.5482 23.6187 27.5482 18.8805C27.5482 14.1423 23.7072 10.3013 18.969 10.3013C14.2308 10.3013 10.3898 14.1423 10.3898 18.8805C10.3898 23.6187 14.2308 27.4597 18.969 27.4597Z" stroke="white" stroke-miterlimit="10" stroke-linecap="round" stroke-linejoin="round"/>
<path d="M18.969 24.2535C21.9365 24.2535 24.3421 21.8479 24.3421 18.8804C24.3421 15.9129 21.9365 13.5073 18.969 13.5073C16.0015 13.5073 13.5959 15.9129 13.5959 18.8804C13.5959 21.8479 16.0015 24.2535 18.969 24.2535Z" stroke="white" stroke-miterlimit="10" stroke-linecap="round" stroke-linejoin="round"/>
<path d="M29.2566 8.36395C30.8653 9.97263 30.6736 12.7718 29.9741 13.4714C29.2746 14.1709 28.3329 12.505 26.7242 10.8964C25.1156 9.28768 23.4497 8.34602 24.1492 7.6465C24.8488 6.94698 27.648 6.75528 29.2566 8.36395Z" stroke="white" stroke-miterlimit="10" stroke-linecap="round" stroke-linejoin="round"/>
</svg>
