<svg width="37" height="37" viewBox="0 0 37 37" fill="none" xmlns="http://www.w3.org/2000/svg">
<path d="M8.8292 35.9989C5.05803 35.9989 2 32.942 2 29.1697V8.8292C2 5.05691 5.05691 2 8.8292 2H29.1708C32.942 2 36 5.05691 36 8.8292V29.1708C36 32.942 32.9431 36 29.1708 36H8.8292V35.9989Z" stroke="white" stroke-miterlimit="10" stroke-linecap="round" stroke-linejoin="round"/>
<path d="M9.49201 32.9989C7.01081 32.9989 5 31.0005 5 28.5347V9.4642C5 6.99835 7.01081 5 9.49201 5H28.508C30.9892 5 33 6.99835 33 9.4642V28.5358C33 31.0016 30.9892 33 28.508 33H9.49201V32.9989Z" stroke="white" stroke-miterlimit="10" stroke-linecap="round" stroke-linejoin="round"/>
<path d="M21.1061 17.9096C21.1812 18.5375 21.5164 19.1463 22.0882 18.7864C23.4953 17.9006 25.287 13.6379 25.5594 13.0212C25.6985 12.705 25.9339 12.5626 26.277 12.5615C30.7349 12.5481 30.6339 12.4942 30.9714 12.6232C31.2798 12.7409 31.3964 12.9741 31.3224 13.2981C30.8929 15.1705 28.3938 17.8255 27.4543 19.4411C27.2121 19.8582 27.2513 20.2641 27.5484 20.6464C28.2413 21.5378 30.8021 23.5694 31.2898 25.1054C31.4008 25.4541 31.3067 25.7288 30.9972 25.9183C30.6306 26.1425 27.8713 26.2019 26.7434 26.2019C25.981 26.1963 25.3599 25.8073 24.8138 25.3117C24.1669 24.7242 23.5974 23.7151 22.7677 23.0895C22.2418 22.6937 21.7956 22.7946 21.4738 23.3743C21.1846 23.8956 21.1206 24.5695 21.105 25.1592C21.0859 25.8577 20.8 26.1234 20.0914 26.1559C16.7312 26.3152 15.2759 25.2825 15.0057 25.1379C11.2318 23.1186 8.6418 17.1528 6.7952 13.4383C6.59339 13.0324 6.74811 12.7286 7.18762 12.5952C7.44325 12.5178 7.57779 12.5324 10.8281 12.5223C11.4504 12.52 11.7385 12.7162 11.9684 13.2981C12.5861 14.8555 14.1592 17.9343 15.2019 18.7382C15.6436 19.079 16.017 18.9714 16.2143 18.4489C16.5742 17.4948 16.4924 15.2939 16.3545 14.2534C16.2592 13.5325 15.8813 13.0582 15.1503 12.9158C14.8644 12.8598 14.9182 12.7387 15.0494 12.5761C15.8152 11.6208 18.8816 11.817 20.0465 12.0099C20.8504 12.1433 21.0747 12.4191 21.1341 13.2421C21.1935 14.0213 20.9883 16.9286 21.1061 17.9096Z" stroke="white" stroke-miterlimit="10" stroke-linecap="round" stroke-linejoin="round"/>
</svg>
